<svg width="192" height="192" viewBox="0 0 192 192" fill="none" xmlns="http://www.w3.org/2000/svg">
<g clip-path="url(#clip0)">
<path fill-rule="evenodd" clip-rule="evenodd" d="M96.365 2.49061C73.6183 2.40481 51.5876 10.4394 34.2366 25.1486C16.8856 39.8579 5.3533 60.2764 1.71461 82.7303C-1.92408 105.184 2.56976 128.2 14.3875 147.636C26.2052 167.072 44.5709 181.653 66.1806 188.755C70.9566 189.614 72.6761 186.701 72.6761 183.979C72.6761 181.256 72.6761 174.427 72.6761 166.164C46.1215 171.991 40.5335 154.893 40.5335 154.893C38.766 149.108 34.9885 144.144 29.883 140.899C21.2384 134.977 30.5517 135.12 30.5517 135.12C33.5875 135.542 36.4868 136.652 39.028 138.365C41.5693 140.079 43.6852 142.35 45.214 145.007C53.7153 159.335 67.5656 155.371 73.0103 152.935C73.4503 148.084 75.6002 143.547 79.0759 140.135C57.8704 137.747 35.5187 129.532 35.5187 92.9003C35.4099 83.401 38.9482 74.2217 45.405 67.2532C42.4835 59.0226 42.808 49.9881 46.3124 41.9883C46.3124 41.9883 54.3361 39.4092 72.5804 51.8268C88.2127 47.5458 104.708 47.5458 120.34 51.8268C138.585 39.457 146.561 41.9883 146.561 41.9883C150.071 49.9842 150.413 59.0151 147.516 67.2532C153.96 74.2264 157.481 83.4067 157.355 92.9003C157.355 129.628 135.003 137.699 113.702 140.039C115.994 142.355 117.763 145.134 118.892 148.191C120.02 151.247 120.482 154.509 120.245 157.759C120.245 170.558 120.245 180.827 120.245 183.979C120.245 187.131 121.964 189.471 126.788 188.755C148.398 181.653 166.764 167.072 178.581 147.636C190.399 128.2 194.893 105.184 191.254 82.7303C187.615 60.2764 176.083 39.8579 158.732 25.1486C141.381 10.4394 119.35 2.40481 96.6037 2.49061" fill="#171615"/>
</g>
<defs>
<clipPath id="clip0">
<rect width="192" height="192" fill="white"/>
</clipPath>
</defs>
</svg>
